<svg width="18" height="18" viewBox="0 0 18 18" fill="none" xmlns="http://www.w3.org/2000/svg">
<g clip-path="url(#clip0_14734_71326)">
<path d="M14.5125 18H3.4875C1.575 18 0 16.425 0 14.5125V3.4875C0 1.575 1.575 0 3.4875 0H14.625C16.425 0 18 1.575 18 3.4875V14.625C18 16.425 16.425 18 14.5125 18Z" fill="url(#paint0_linear_14734_71326)"/>
<path d="M9 16.5234C13.1551 16.5234 16.5234 13.1551 16.5234 9C16.5234 4.84492 13.1551 1.47656 9 1.47656C4.84492 1.47656 1.47656 4.84492 1.47656 9C1.47656 13.1551 4.84492 16.5234 9 16.5234Z" fill="#425D87"/>
<path d="M9 14.9062C12.2619 14.9062 14.9062 12.2619 14.9062 9C14.9062 5.73807 12.2619 3.09375 9 3.09375C5.73807 3.09375 3.09375 5.73807 3.09375 9C3.09375 12.2619 5.73807 14.9062 9 14.9062Z" fill="url(#paint1_radial_14734_71326)"/>
<path d="M9 3.9375C6.4202 3.9375 4.28906 5.9625 4.28906 8.4375H13.7109C13.7109 5.9625 11.5798 3.9375 9 3.9375Z" fill="url(#paint2_linear_14734_71326)"/>
<path d="M9 1.70114C10.0106 1.70114 10.9089 1.92572 11.8073 2.26259C12.7056 2.59946 13.4916 3.16091 14.1653 3.83466C14.8391 4.5084 15.4005 5.29443 15.7374 6.19275C16.0743 7.09107 16.2989 8.10168 16.2989 9C16.2989 9.89832 16.0743 10.9089 15.7374 11.8073C15.4005 12.7056 14.8391 13.4916 14.1653 14.1653C13.4916 14.8391 12.7056 15.4005 11.8073 15.7374C10.9089 16.0743 9.89832 16.2989 9 16.2989C8.10168 16.2989 7.09107 16.1866 6.19275 15.7374C5.29443 15.4005 4.5084 14.8391 3.83466 14.1653C3.16091 13.4916 2.59946 12.7056 2.26259 11.8073C1.81343 10.9089 1.70114 10.0106 1.70114 9C1.70114 7.98939 1.81343 7.09107 2.26259 6.19275C2.59946 5.29443 3.16091 4.5084 3.83466 3.83466C4.5084 3.16091 5.29443 2.59946 6.19275 2.26259C7.09107 1.81343 7.98939 1.70114 9 1.70114ZM9 1.47656C4.84527 1.47656 1.47656 4.84527 1.47656 9C1.47656 13.1547 4.84527 16.5234 9 16.5234C13.1547 16.5234 16.5234 13.1547 16.5234 9C16.5234 4.84527 13.1547 1.47656 9 1.47656Z" fill="#7D96BB"/>
<path d="M13.2188 9.45608V8.65794H12.7688C12.7688 8.4299 12.6562 8.08784 12.6562 7.8598L13.1063 7.63176L12.7688 6.94764L12.3187 7.17568C12.2062 6.94764 12.0938 6.83362 11.9813 6.71959L12.3187 6.37753L11.7562 5.80743L11.4188 6.14949C11.1938 6.03547 10.9688 5.80743 10.7438 5.69341L10.9688 5.23733L10.1813 5.00929L10.0687 5.46537C9.84375 5.46537 9.61875 5.35135 9.50625 5.35135V4.78125H8.60625V5.23733C8.38125 5.35135 8.15625 5.46537 7.93125 5.46537L7.70625 5.00929L7.03125 5.35135L7.25625 5.80743C7.03125 5.92145 6.80625 6.03547 6.69375 6.14949L6.35625 5.80743L5.79375 6.37753L6.13125 6.71959C6.01875 6.94764 5.79375 7.17568 5.68125 7.40372L5.23125 7.17568L5.00625 7.8598L5.45625 8.08784C5.45625 8.31588 5.34375 8.54392 5.34375 8.65794H4.78125V9.45608H5.23125C5.23125 9.68412 5.34375 10.0262 5.34375 10.2542L5.00625 10.4823L5.34375 11.1664L5.79375 10.9383C5.90625 11.1664 6.01875 11.2804 6.13125 11.3944L5.79375 11.7365L6.35625 12.3066L6.69375 11.9645C6.91875 12.0785 7.14375 12.3066 7.36875 12.4206L7.14375 12.8767L7.81875 13.1047L8.04375 12.6486C8.26875 12.6486 8.49375 12.7627 8.60625 12.7627V13.2188H9.39375V12.7627C9.61875 12.7627 9.95625 12.6486 10.1813 12.6486L10.4062 13.1047L11.0813 12.7627L10.8563 12.3066C11.0813 12.1926 11.1938 12.0785 11.3063 11.9645L11.6438 12.3066L12.2063 11.7365L11.8688 11.3944C11.9813 11.1664 12.2062 10.9383 12.3187 10.7103L12.7688 10.9383L13.1063 10.2542L12.6562 10.0262C12.6562 9.79814 12.7688 9.5701 12.7688 9.45608H13.2188ZM9 11.0524C7.875 11.0524 6.975 10.1402 6.975 9C6.975 7.8598 7.875 6.94764 9 6.94764C10.125 6.94764 11.0391 7.8598 11.0391 9C11.0391 10.1402 10.125 11.0524 9 11.0524Z" fill="url(#paint3_linear_14734_71326)"/>
<circle cx="9" cy="9" r="2.00391" stroke="url(#paint4_linear_14734_71326)" stroke-width="0.0703125"/>
</g>
<defs>
<linearGradient id="paint0_linear_14734_71326" x1="9" y1="0" x2="9" y2="18" gradientUnits="userSpaceOnUse">
<stop stop-color="#C0D6F2"/>
<stop offset="1" stop-color="#486490"/>
</linearGradient>
<radialGradient id="paint1_radial_14734_71326" cx="0" cy="0" r="1" gradientUnits="userSpaceOnUse" gradientTransform="translate(9.01308 8.98743) scale(5.89256)">
<stop stop-color="#7093FF"/>
<stop offset="0.4729" stop-color="#0074E7"/>
<stop offset="0.7024" stop-color="#0078F4"/>
<stop offset="0.8859" stop-color="#0039B1"/>
<stop offset="1" stop-color="#001A61"/>
</radialGradient>
<linearGradient id="paint2_linear_14734_71326" x1="8.98721" y1="4.0716" x2="8.98721" y2="8.29991" gradientUnits="userSpaceOnUse">
<stop stop-color="white" stop-opacity="0.24"/>
<stop offset="0.2714" stop-color="white" stop-opacity="0.3"/>
<stop offset="0.7072" stop-color="white" stop-opacity="0.16"/>
<stop offset="1" stop-color="white" stop-opacity="0"/>
</linearGradient>
<linearGradient id="paint3_linear_14734_71326" x1="9.0369" y1="5.43561" x2="9.0369" y2="12.4314" gradientUnits="userSpaceOnUse">
<stop stop-color="#FDFDF9"/>
<stop offset="1" stop-color="#819DB0"/>
</linearGradient>
<linearGradient id="paint4_linear_14734_71326" x1="9" y1="6.96094" x2="9" y2="11.0391" gradientUnits="userSpaceOnUse">
<stop stop-color="white"/>
<stop offset="1" stop-color="white" stop-opacity="0"/>
</linearGradient>
<clipPath id="clip0_14734_71326">
<rect width="18" height="18" fill="white"/>
</clipPath>
</defs>
</svg>
