<svg t="1752838399599" class="icon" viewBox="0 0 1024 1024" version="1.1" xmlns="http://www.w3.org/2000/svg" p-id="6277" width="200" height="200"><path d="M954.88 152.064h-73.216V74.752c0-35.328-28.16-64-62.976-64h-297.472v1.024h-445.44C41.472 11.776 13.312 40.448 13.312 75.776v884.224c0 35.328 28.16 64 62.976 64H373.76v-1.024h444.928c16.384 0 30.72-6.144 41.984-16.384h94.208c30.72 0 55.296-25.088 55.296-56.32V208.896c0-31.232-24.576-56.832-55.296-56.832zM213.504 959.488v1.024H115.712c-23.04 0-41.472-19.456-41.472-43.52V118.784c0-24.064 18.432-43.52 41.472-43.52h562.176v-1.024h100.864c23.04 0 41.472 19.456 41.472 43.52v797.696c0 24.064-18.432 43.52-41.472 43.52H213.504z m750.08-52.736c0 28.16-22.016 51.2-49.152 51.2h-33.28V201.216h33.28c27.136 0 49.152 23.04 49.152 51.2v654.336z" fill="#040000" p-id="6278"></path><path d="M499.712 435.712h235.008c19.456 0 35.328-15.872 35.328-35.84s-15.872-35.84-35.328-35.84H499.712c-19.456 0-35.84 15.872-35.84 35.84s15.872 35.84 35.84 35.84zM499.712 278.016h235.008c19.456 0 35.328-15.872 35.328-35.84s-15.872-35.84-35.328-35.84H499.712c-19.456 0-35.84 15.872-35.84 35.84 0 19.456 15.872 35.84 35.84 35.84zM165.888 651.264h568.832c19.456 0 35.84-15.872 35.84-35.84s-15.872-35.84-35.84-35.84H165.888c-19.456 0-35.328 15.872-35.328 35.84-0.512 19.968 15.36 35.84 35.328 35.84zM769.536 788.992c0.512-19.968-15.36-36.352-34.816-36.352H165.888c-19.456 0-35.328 15.872-35.328 35.84s15.872 35.84 35.328 35.84h568.832c18.944-0.512 34.816-15.872 34.816-35.328zM185.856 445.44H368.64c8.704 0 16.896-3.584 23.552-9.728 6.144-6.144 9.728-14.848 9.728-23.552V233.984c0-18.432-14.848-33.28-32.768-33.28H185.856c-18.432 0-32.768 14.848-33.28 33.28v178.176c0.512 17.92 15.36 33.28 33.28 33.28z m37.376-75.776V275.968c0-3.584 2.56-6.144 6.144-6.144h96.768c3.584 0 6.144 2.56 6.144 6.144v93.696c0 1.536-0.512 3.072-2.048 4.096-1.024 1.024-2.56 1.536-4.096 1.536H229.376c-3.584 0.512-6.144-2.048-6.144-5.632z" fill="#040000" p-id="6279"></path></svg>